<!-- Generator: Adobe Illustrator 25.2.0, SVG Export Plug-In . SVG Version: 6.00 Build 0)  -->
<svg version="1.1" id="OperaHouse" xmlns="http://www.w3.org/2000/svg" xmlns:xlink="http://www.w3.org/1999/xlink" x="0px" y="0px" viewBox="0 0 612 1008" style="enable-background:new 0 0 612 1008;" xml:space="preserve" width="612" height="1008">
<style type="text/css">
	.st0{fill:#EAEAE8;}
	.st1{fill:#C9C9C9;stroke:#000000;stroke-width:2;stroke-miterlimit:10;}
	.st2{font-family:'Helvetica-Light';}
	.st3{font-size:36px;}
	.st4{font-family:'Helvetica';}
	.st5{font-size:21px;}
	.st6{fill:none;stroke:#000000;stroke-miterlimit:10;}
	.st7{fill:#FFFFFF;stroke:#000000;stroke-miterlimit:10;}
	.st8{fill:#C9C9C9;stroke:#000000;stroke-miterlimit:10;}
	.st9{display:none;fill:#FFFFFF;stroke:#000000;stroke-miterlimit:10;}
	.st10{font-size:24px;}
	.st11{font-size:10px;}
	.st12{fill:#5EC7D2;}
	.st13{fill:#FFFFFF;}
</style>
<rect id="Background" x="0.3" class="st0" width="612" height="1008" />
<g id="Stage">
	<polygon class="st1" points="70.6,53.8 70.6,184 162.6,184 177.6,168.7 246,168.7 246,127.2 418.5,127.2 418.5,168.7 478.1,168.7    493.1,184 584.4,184 584.4,53.8  " />
	<rect x="70.6" y="184" class="st1" width="35.7" height="11.6" />
	<rect x="70.6" y="195.6" class="st1" width="35.7" height="11.6" />
	<rect x="70.6" y="207.3" class="st1" width="35.7" height="11.6" />
	<rect x="70.6" y="218.9" class="st1" width="35.7" height="11.6" />
	<rect x="548.7" y="184" class="st1" width="35.7" height="11.6" />
	<rect x="548.7" y="195.6" class="st1" width="35.7" height="11.6" />
	<rect x="548.7" y="207.3" class="st1" width="35.7" height="11.6" />
	<rect x="548.7" y="218.9" class="st1" width="35.7" height="11.6" />
	<g>
		<text transform="matrix(1 0 0 1 180.1398 90.6258)" class="st2 st3">Virginia City Players</text>
	</g>
	<g>
		<text transform="matrix(1 0 0 1 275.9347 115.875)" class="st4 st5">Seating Chart</text>
	</g>
	<line class="st6" x1="246" y1="168.7" x2="418.5" y2="168.7" />
</g>
<g id="Seats">
	<g id="row_A">
		<rect id="seat_8_A" x="179.1" y="196.1" class="st7" width="36.3" height="18.7" />
		<rect id="seat_7_A" x="215.4" y="196.1" class="st7" width="36.3" height="18.7" />
		<rect id="seat_6_A" x="251.8" y="196.1" class="st7" width="36.3" height="18.7" />
		<rect id="seat_5_A" x="288.1" y="196.1" class="st7" width="36.3" height="18.7" />
		<rect id="seat_4_A" x="324.5" y="196.1" class="st7" width="36.3" height="18.7" />
		<rect id="seat_3_A" x="360.8" y="196.1" class="st7" width="36.3" height="18.7" />
		<rect id="seat_2_A" x="397.2" y="196.1" class="st7" width="36.3" height="18.7" />
		<rect id="seat_1_A" x="433.5" y="196.1" class="st7" width="36.3" height="18.7" />
	</g>
	<g id="row_B">
		<rect id="seat_11_B" x="124.6" y="231.3" class="st7" width="36.3" height="18.7" />
		<rect id="seat_10_B" x="160.9" y="231.3" class="st7" width="36.3" height="18.7" />
		<rect id="seat_9_B" x="197.3" y="231.3" class="st7" width="36.3" height="18.7" />
		<rect id="seat_8_B" x="233.6" y="231.3" class="st7" width="36.3" height="18.7" />
		<rect id="seat_7_B" x="269.9" y="231.3" class="st7" width="36.3" height="18.7" />
		<rect id="seat_6_B" x="306.3" y="231.3" class="st7" width="36.3" height="18.7" />
		<rect id="seat_5_B" x="342.6" y="231.3" class="st7" width="36.3" height="18.7" />
		<rect id="seat_4_B" x="379" y="231.3" class="st7" width="36.3" height="18.7" />
		<rect id="seat_3_B" x="415.3" y="231.3" class="st7" width="36.3" height="18.7" />
		<rect id="seat_2_B" x="451.7" y="231.3" class="st7" width="36.3" height="18.7" />
		<rect id="seat_1_B" x="488" y="231.3" class="st7" width="36.3" height="18.7" />
	</g>
	<g id="row_C">
		<rect id="seat_12_C" x="106.4" y="266.5" class="st7" width="36.3" height="18.7" />
		<rect id="seat_11_C" x="142.7" y="266.5" class="st7" width="36.3" height="18.7" />
		<rect id="seat_10_C" x="179.1" y="266.5" class="st7" width="36.3" height="18.7" />
		<rect id="seat_9_C" x="215.4" y="266.5" class="st7" width="36.3" height="18.7" />
		<rect id="seat_8_C" x="251.8" y="266.5" class="st7" width="36.3" height="18.7" />
		<rect id="seat_7_C" x="288.1" y="266.5" class="st7" width="36.3" height="18.7" />
		<rect id="seat_6_C" x="324.5" y="266.5" class="st7" width="36.3" height="18.7" />
		<rect id="seat_5_C" x="360.8" y="266.5" class="st7" width="36.3" height="18.7" />
		<rect id="seat_4_C" x="397.2" y="266.5" class="st7" width="36.3" height="18.7" />
		<rect id="seat_3_C" x="433.5" y="266.5" class="st7" width="36.3" height="18.7" />
		<rect id="seat_2_C" x="469.8" y="266.5" class="st7" width="36.3" height="18.7" />
		<rect id="seat_1_C" x="506.2" y="266.5" class="st7" width="36.3" height="18.7" />
	</g>
	<g id="row_D">
		<rect id="seat_12_D" x="106.4" y="301.7" class="st7" width="36.3" height="18.7" />
		<rect id="seat_11_D" x="142.7" y="301.7" class="st7" width="36.3" height="18.7" />
		<rect id="seat_10_D" x="179.1" y="301.7" class="st7" width="36.3" height="18.7" />
		<rect id="seat_9_D" x="215.4" y="301.7" class="st7" width="36.3" height="18.7" />
		<rect id="seat_8_D" x="251.8" y="301.7" class="st7" width="36.3" height="18.7" />
		<rect id="seat_7_D" x="288.1" y="301.7" class="st7" width="36.3" height="18.7" />
		<rect id="seat_6_D" x="324.5" y="301.7" class="st7" width="36.3" height="18.7" />
		<rect id="seat_5_D" x="360.8" y="301.7" class="st7" width="36.3" height="18.7" />
		<rect id="seat_4_D" x="397.2" y="301.7" class="st7" width="36.3" height="18.7" />
		<rect id="seat_3_D" x="433.5" y="301.7" class="st7" width="36.3" height="18.7" />
		<rect id="seat_2_D" x="469.8" y="301.7" class="st7" width="36.3" height="18.7" />
		<rect id="seat_1_D" x="506.2" y="301.7" class="st7" width="36.3" height="18.7" />
	</g>
	<g id="row_E">
		<rect id="seat_12_E" x="106.4" y="336.9" class="st7" width="36.3" height="18.7" />
		<rect id="seat_11_E" x="142.7" y="336.9" class="st7" width="36.3" height="18.7" />
		<rect id="seat_10_E" x="179.1" y="336.9" class="st7" width="36.3" height="18.7" />
		<rect id="seat_9_E" x="215.4" y="336.9" class="st7" width="36.3" height="18.7" />
		<rect id="seat_8_E" x="251.8" y="336.9" class="st7" width="36.3" height="18.7" />
		<rect id="seat_7_E" x="288.1" y="336.9" class="st7" width="36.3" height="18.7" />
		<rect id="seat_6_E" x="324.5" y="336.9" class="st7" width="36.3" height="18.7" />
		<rect id="seat_5_E" x="360.8" y="336.9" class="st7" width="36.3" height="18.7" />
		<rect id="seat_4_E" x="397.2" y="336.9" class="st7" width="36.3" height="18.7" />
		<rect id="seat_3_E" x="433.5" y="336.9" class="st7" width="36.3" height="18.7" />
		<rect id="seat_2_E" x="469.8" y="336.9" class="st7" width="36.3" height="18.7" />
		<rect id="seat_1_E" x="506.2" y="336.9" class="st7" width="36.3" height="18.7" />
	</g>
	<g id="row_F">
		<rect id="seat_12_F" x="106.4" y="372.1" class="st7" width="36.3" height="18.7" />
		<rect id="seat_11_F" x="142.7" y="372.1" class="st7" width="36.3" height="18.7" />
		<rect id="seat_10_F" x="179.1" y="372.1" class="st7" width="36.3" height="18.7" />
		<rect id="seat_9_F" x="215.4" y="372.1" class="st7" width="36.3" height="18.7" />
		<rect id="seat_8_F" x="251.8" y="372.1" class="st7" width="36.3" height="18.7" />
		<rect id="seat_7_F" x="288.1" y="372.1" class="st7" width="36.3" height="18.7" />
		<rect id="seat_6_F" x="324.5" y="372.1" class="st7" width="36.3" height="18.7" />
		<rect id="seat_5_F" x="360.8" y="372.1" class="st7" width="36.3" height="18.7" />
		<rect id="seat_4_F" x="397.2" y="372.1" class="st7" width="36.3" height="18.7" />
		<rect id="seat_3_F" x="433.5" y="372.1" class="st7" width="36.3" height="18.7" />
		<rect id="seat_2_F" x="469.8" y="372.1" class="st7" width="36.3" height="18.7" />
		<rect id="seat_1_F" x="506.2" y="372.1" class="st7" width="36.3" height="18.7" />
	</g>
	<g id="row_G">
		<rect id="seat_12_G" x="106.4" y="407.3" class="st7" width="36.3" height="18.7" />
		<rect id="seat_11_G" x="142.7" y="407.3" class="st7" width="36.3" height="18.7" />
		<rect id="seat_10_G" x="179.1" y="407.3" class="st7" width="36.3" height="18.7" />
		<rect id="seat_9_G" x="215.4" y="407.3" class="st7" width="36.3" height="18.7" />
		<rect id="seat_8_G" x="251.8" y="407.3" class="st7" width="36.3" height="18.7" />
		<rect id="seat_7_G" x="288.1" y="407.3" class="st7" width="36.3" height="18.7" />
		<rect id="seat_6_G" x="324.5" y="407.3" class="st7" width="36.3" height="18.7" />
		<rect id="seat_5_G" x="360.8" y="407.3" class="st7" width="36.3" height="18.7" />
		<rect id="seat_4_G" x="397.2" y="407.3" class="st7" width="36.3" height="18.7" />
		<rect id="seat_3_G" x="433.5" y="407.3" class="st7" width="36.3" height="18.7" />
		<rect id="seat_2_G" x="469.8" y="407.3" class="st7" width="36.3" height="18.7" />
		<rect id="seat_1_G" x="506.2" y="407.3" class="st7" width="36.3" height="18.7" />
	</g>
	<g id="row_H">
		<rect id="seat_12_H" x="106.4" y="442.5" class="st7" width="36.3" height="18.7" />
		<rect id="seat_11_H" x="142.7" y="442.5" class="st7" width="36.3" height="18.7" />
		<rect id="seat_10_H" x="179.1" y="442.5" class="st7" width="36.3" height="18.7" />
		<rect id="seat_9_H" x="215.4" y="442.5" class="st7" width="36.3" height="18.7" />
		<rect id="seat_8_H" x="251.8" y="442.5" class="st7" width="36.3" height="18.7" />
		<rect id="seat_7_H" x="288.1" y="442.5" class="st7" width="36.3" height="18.7" />
		<rect id="seat_6_H" x="324.5" y="442.5" class="st7" width="36.3" height="18.7" />
		<rect id="seat_5_H" x="360.8" y="442.5" class="st7" width="36.3" height="18.7" />
		<rect id="seat_4_H" x="397.2" y="442.5" class="st7" width="36.3" height="18.7" />
		<rect id="seat_3_H" x="433.5" y="442.5" class="st7" width="36.3" height="18.7" />
		<rect id="seat_2_H" x="469.8" y="442.5" class="st7" width="36.3" height="18.7" />
		<rect id="seat_1_H" x="506.2" y="442.5" class="st8" width="36.3" height="18.7" />
	</g>
	<g id="row_J">
		<rect id="seat_12_J" x="106.4" y="477.7" class="st7" width="36.3" height="18.7" />
		<rect id="seat_11_J" x="142.7" y="477.7" class="st7" width="36.3" height="18.7" />
		<rect id="seat_10_J" x="179.1" y="477.7" class="st7" width="36.3" height="18.7" />
		<rect id="seat_9_J" x="215.4" y="477.7" class="st7" width="36.3" height="18.7" />
		<rect id="seat_8_J" x="251.8" y="477.7" class="st7" width="36.3" height="18.7" />
		<rect id="seat_7_J" x="288.1" y="477.7" class="st7" width="36.3" height="18.7" />
		<rect id="seat_6_J" x="324.5" y="477.7" class="st7" width="36.3" height="18.7" />
		<rect id="seat_5_J" x="360.8" y="477.7" class="st7" width="36.3" height="18.7" />
		<rect id="seat_4_J" x="397.2" y="477.7" class="st7" width="36.3" height="18.7" />
		<rect id="seat_3_J" x="433.5" y="477.7" class="st7" width="36.3" height="18.7" />
		<rect id="seat_2_J" x="469.8" y="477.7" class="st7" width="36.3" height="18.7" />
		<rect id="seat_1_J" x="506.2" y="477.7" class="st7" width="36.3" height="18.7" />
	</g>
	<g id="row_K">
		<rect id="seat_12_K" x="106.4" y="512.9" class="st7" width="36.3" height="18.7" />
		<rect id="seat_11_K" x="142.7" y="512.9" class="st7" width="36.3" height="18.7" />
		<rect id="seat_10_K" x="179.1" y="512.9" class="st7" width="36.3" height="18.7" />
		<rect id="seat_9_K" x="215.4" y="512.9" class="st7" width="36.3" height="18.7" />
		<rect id="seat_8_K" x="251.8" y="512.9" class="st7" width="36.3" height="18.7" />
		<rect id="seat_7_K" x="288.1" y="512.9" class="st7" width="36.3" height="18.7" />
		<rect id="seat_6_K" x="324.5" y="512.9" class="st7" width="36.3" height="18.7" />
		<rect id="seat_5_K" x="360.8" y="512.9" class="st7" width="36.3" height="18.7" />
		<rect id="seat_4_K" x="397.2" y="512.9" class="st7" width="36.3" height="18.7" />
		<rect id="seat_3_K" x="433.5" y="512.9" class="st7" width="36.3" height="18.7" />
		<rect id="seat_2_K" x="469.8" y="512.9" class="st7" width="36.3" height="18.7" />
		<rect id="seat_1_K" x="506.2" y="512.9" class="st7" width="36.3" height="18.7" />
	</g>
	<g id="row_M">
		<rect id="seat_12_M" x="106.3" y="570.6" class="st7" width="36.3" height="18.7" />
		<rect id="seat_11_M" x="142.6" y="570.6" class="st7" width="36.3" height="18.7" />
		<rect id="seat_10_M" x="179" y="570.6" class="st7" width="36.3" height="18.7" />
		<rect id="seat_9_M" x="215.3" y="570.6" class="st7" width="36.3" height="18.7" />
		<rect id="seat_8_M" x="251.7" y="570.6" class="st7" width="36.3" height="18.7" />
		<rect id="seat_7_M" x="288" y="570.6" class="st7" width="36.3" height="18.7" />
		<rect id="seat_6_M" x="324.4" y="570.6" class="st7" width="36.3" height="18.7" />
		<rect id="seat_5_M" x="360.7" y="570.6" class="st7" width="36.3" height="18.7" />
		<rect id="seat_4_M" x="397.1" y="570.6" class="st7" width="36.3" height="18.7" />
		<rect id="seat_3_M" x="433.4" y="570.6" class="st7" width="36.3" height="18.7" />
		<rect id="seat_2_M" x="469.8" y="570.6" class="st7" width="36.3" height="18.7" />
		<rect id="seat_1_M" x="506.1" y="570.6" class="st7" width="36.3" height="18.7" />
	</g>
	<g id="row_N">
		<rect id="seat_12_N" x="106.3" y="605.8" class="st7" width="36.3" height="18.7" />
		<rect id="seat_11_N" x="142.6" y="605.8" class="st7" width="36.3" height="18.7" />
		<rect id="seat_10_N" x="179" y="605.8" class="st7" width="36.3" height="18.7" />
		<rect id="seat_9_N" x="215.3" y="605.8" class="st7" width="36.3" height="18.7" />
		<rect id="seat_8_N" x="251.7" y="605.8" class="st7" width="36.3" height="18.7" />
		<rect id="seat_7_N" x="288" y="605.8" class="st7" width="36.3" height="18.7" />
		<rect id="seat_6_N" x="324.4" y="605.8" class="st7" width="36.3" height="18.7" />
		<rect id="seat_5_N" x="360.7" y="605.8" class="st7" width="36.3" height="18.7" />
		<rect id="seat_4_N" x="397.1" y="605.8" class="st8" width="36.3" height="18.7" />
		<rect id="seat_3_N" x="433.4" y="605.8" class="st8" width="36.3" height="18.7" />
		<rect id="seat_2_N" x="469.8" y="605.8" class="st7" width="36.3" height="18.7" />
		<rect id="seat_1_N" x="506.1" y="605.8" class="st7" width="36.3" height="18.7" />
	</g>
	<g id="row_O">
		<rect id="seat_12_O" x="106.3" y="641" class="st7" width="36.3" height="18.7" />
		<rect id="seat_11_O" x="142.6" y="641" class="st7" width="36.3" height="18.7" />
		<rect id="seat_10_O" x="179" y="641" class="st7" width="36.3" height="18.7" />
		<rect id="seat_9_O" x="215.3" y="641" class="st7" width="36.3" height="18.7" />
		<rect id="seat_8_O" x="251.7" y="641" class="st7" width="36.3" height="18.7" />
		<rect id="seat_7_O" x="288" y="641" class="st7" width="36.3" height="18.7" />
		<rect id="seat_6_O" x="324.4" y="641" class="st7" width="36.3" height="18.7" />
		<rect id="seat_5_O" x="360.7" y="641" class="st7" width="36.3" height="18.7" />
		<rect id="seat_4_O" x="397.1" y="641" class="st8" width="36.3" height="18.7" />
		<rect id="seat_3_O" x="433.4" y="641" class="st8" width="36.3" height="18.7" />
		<rect id="seat_2_O" x="469.8" y="641" class="st7" width="36.3" height="18.7" />
		<rect id="seat_1_O" x="506.1" y="641" class="st7" width="36.3" height="18.7" />
	</g>
	<g id="row_P">
		<rect id="seat_12_P" x="106.3" y="676.2" class="st7" width="36.3" height="18.7" />
		<rect id="seat_11_P" x="142.6" y="676.2" class="st7" width="36.3" height="18.7" />
		<rect id="seat_10_P" x="179" y="676.2" class="st7" width="36.3" height="18.7" />
		<rect id="seat_9_P" x="215.3" y="676.2" class="st7" width="36.3" height="18.7" />
		<rect id="seat_8_P" x="251.7" y="676.2" class="st7" width="36.3" height="18.7" />
		<rect id="seat_7_P" x="288" y="676.2" class="st7" width="36.3" height="18.7" />
		<rect id="seat_6_P" x="324.4" y="676.2" class="st7" width="36.3" height="18.7" />
		<rect id="seat_5_P" x="360.7" y="676.2" class="st7" width="36.3" height="18.7" />
		<rect id="seat_4_P" x="397.1" y="676.2" class="st8" width="36.3" height="18.7" />
		<rect id="seat_3_P" x="433.4" y="676.2" class="st8" width="36.3" height="18.7" />
		<rect id="seat_2_P" x="469.8" y="676.2" class="st7" width="36.3" height="18.7" />
		<rect id="seat_1_P" x="506.1" y="676.2" class="st7" width="36.3" height="18.7" />
	</g>
	<g id="row_Q">
		<rect id="seat_12_Q" x="106.3" y="711.4" class="st7" width="36.3" height="18.7" />
		<rect id="seat_11_Q" x="142.6" y="711.4" class="st7" width="36.3" height="18.7" />
		<rect id="seat_10_Q" x="215.3" y="711.4" class="st7" width="36.3" height="18.7" />
		<rect id="seat_9_Q" x="179" y="711.4" class="st7" width="36.3" height="18.7" />
		<rect id="seat_8_Q" x="251.7" y="711.4" class="st7" width="36.3" height="18.7" />
		<rect id="seat_7_Q" x="288" y="711.4" class="st7" width="36.3" height="18.7" />
		<rect id="seat_6_Q" x="324.4" y="711.4" class="st7" width="36.3" height="18.7" />
		<rect id="seat_5_Q" x="360.7" y="711.4" class="st7" width="36.3" height="18.7" />
		<rect id="seat_4_Q" x="397.1" y="711.4" class="st7" width="36.3" height="18.7" />
		<rect id="seat_3_Q" x="433.4" y="711.4" class="st7" width="36.3" height="18.7" />
		<rect id="seat_2_Q" x="469.8" y="711.4" class="st7" width="36.3" height="18.7" />
		<rect id="seat_1_Q" x="506.1" y="711.4" class="st7" width="36.3" height="18.7" />
	</g>
	<g id="row_R">
		<rect id="seat_12_R" x="106.3" y="746.6" class="st7" width="36.3" height="18.7" />
		<rect id="seat_11_R" x="142.6" y="746.6" class="st7" width="36.3" height="18.7" />
		<rect id="seat_10_R" x="179" y="746.6" class="st7" width="36.3" height="18.7" />
		<rect id="seat_9_R" x="215.3" y="746.6" class="st7" width="36.3" height="18.7" />
		<rect id="seat_8_R" x="251.7" y="746.6" class="st7" width="36.3" height="18.7" />
		<rect id="seat_7_R" x="288" y="746.6" class="st7" width="36.3" height="18.7" />
		<rect id="seat_6_R" x="324.4" y="746.6" class="st7" width="36.3" height="18.7" />
		<rect id="seat_5_R" x="360.7" y="746.6" class="st7" width="36.3" height="18.7" />
		<rect id="seat_4_R" x="397.1" y="746.6" class="st7" width="36.3" height="18.7" />
		<rect id="seat_3_R" x="433.4" y="746.6" class="st7" width="36.3" height="18.7" />
		<rect id="seat_2_R" x="469.8" y="746.6" class="st7" width="36.3" height="18.7" />
		<rect id="seat_1_R" x="506.1" y="746.6" class="st7" width="36.3" height="18.7" />
	</g>
	<g id="row_S">
		<rect id="seat_9_S" x="106.4" y="781.8" class="st7" width="36.3" height="18.7" />
		<rect id="seat_8_S" x="142.7" y="781.8" class="st7" width="36.3" height="18.7" />
		<rect id="seat_7_S" x="179.1" y="781.8" class="st9" width="36.3" height="18.7" />
		<rect id="seat_6_S" x="215.4" y="781.8" class="st7" width="36.3" height="18.7" />
		<rect id="seat_5_S" x="251.8" y="781.8" class="st7" width="36.3" height="18.7" />
		<rect id="seat_4_S" x="288.1" y="781.8" class="st7" width="36.3" height="18.7" />
		<rect id="seat_3_S" x="324.5" y="781.8" class="st7" width="36.3" height="18.7" />
		<rect id="seat_2_S" x="469.8" y="781.8" class="st7" width="36.3" height="18.7" />
		<rect id="seat_1_S" x="506.1" y="781.8" class="st7" width="36.3" height="18.7" />
	</g>
	<g id="row_T">
		<rect id="seat_11_T" x="106.3" y="817" class="st7" width="36.3" height="18.7" />
		<rect id="seat_10_T" x="142.6" y="817" class="st7" width="36.3" height="18.7" />
		<rect id="seat_9_T" x="179" y="817" class="st7" width="36.3" height="18.7" />
		<rect id="seat_8_T" x="215.3" y="817" class="st7" width="36.3" height="18.7" />
		<rect id="seat_7_T" x="251.7" y="817" class="st7" width="36.3" height="18.7" />
		<rect id="seat_6_T" x="288" y="817" class="st7" width="36.3" height="18.7" />
		<rect id="seat_5_T" x="324.4" y="817" class="st7" width="36.3" height="18.7" />
		<rect id="seat_4_T" x="360.7" y="817" class="st8" width="36.3" height="18.7" />
		<rect id="seat_3_T" x="433.4" y="817" class="st8" width="36.3" height="18.7" />
		<rect id="seat_2_T" x="469.8" y="817" class="st7" width="36.3" height="18.7" />
		<rect id="seat_1_T" x="506.1" y="817" class="st7" width="36.3" height="18.7" />
	</g>
	<g id="row_U">
		<rect id="seat_8_U" x="106.3" y="852.2" class="st7" width="36.3" height="18.7" />
		<rect id="seat_7_U" x="142.6" y="852.2" class="st7" width="36.3" height="18.7" />
		<rect id="seat_6_U" x="179" y="852.2" class="st7" width="36.3" height="18.7" />
		<rect id="seat_5_U" x="215.3" y="852.2" class="st7" width="36.3" height="18.7" />
		<rect id="seat_4_U" x="251.7" y="852.2" class="st7" width="36.3" height="18.7" />
		<rect id="seat_3_U" x="288" y="852.2" class="st7" width="36.3" height="18.7" />
		<rect id="seat_2_U" x="324.4" y="852.2" class="st8" width="36.3" height="18.7" />
		<rect id="seat_1_U" x="360.7" y="852.2" class="st8" width="36.3" height="18.7" />
	</g>
	<g id="row_V">
		<rect id="seat_8_V" x="106.3" y="887.4" class="st7" width="36.3" height="18.7" />
		<rect id="seat_7_V" x="142.6" y="887.4" class="st7" width="36.3" height="18.7" />
		<rect id="seat_6_V" x="179" y="887.4" class="st7" width="36.3" height="18.7" />
		<rect id="seat_5_V" x="215.3" y="887.4" class="st7" width="36.3" height="18.7" />
		<rect id="seat_4_V" x="251.7" y="887.4" class="st7" width="36.3" height="18.7" />
		<rect id="seat_3_V" x="288" y="887.4" class="st7" width="36.3" height="18.7" />
		<rect id="seat_2_V" x="324.4" y="887.4" class="st7" width="36.3" height="18.7" />
		<rect id="seat_1_V" x="360.7" y="887.4" class="st7" width="36.3" height="18.7" />
	</g>
	<g id="row_W">
		<rect id="seat_8_W" x="106.3" y="922.6" class="st7" width="36.3" height="18.7" />
		<rect id="seat_7_W" x="142.6" y="922.6" class="st7" width="36.3" height="18.7" />
		<rect id="seat_6_W" x="179" y="922.6" class="st7" width="36.3" height="18.7" />
		<rect id="seat_5_W" x="215.3" y="922.6" class="st7" width="36.3" height="18.7" />
		<rect id="seat_4_W" x="251.7" y="922.6" class="st7" width="36.3" height="18.7" />
		<rect id="seat_3_W" x="288" y="922.6" class="st7" width="36.3" height="18.7" />
		<rect id="seat_2_W" x="324.4" y="922.6" class="st7" width="36.3" height="18.7" />
		<rect id="seat_1_W" x="360.7" y="922.6" class="st7" width="36.3" height="18.7" />
	</g>
</g>
<g id="AisleLetters">
	<g id="As">
		<text transform="matrix(1 0 0 1 157.7159 215.3187)" class="st2 st10">A</text>
		<text transform="matrix(1 0 0 1 476.603 215.3187)" class="st2 st10">A</text>
	</g>
	<g id="Bs">
		<text transform="matrix(1 0 0 1 104.7159 250.7831)" class="st2 st10">B</text>
		<text transform="matrix(1 0 0 1 531.4846 250.7831)" class="st2 st10">B</text>
	</g>
	<g id="Cs">
		<text transform="matrix(1 0 0 1 81.0562 286.2473)" class="st2 st10">C</text>
		<text transform="matrix(1 0 0 1 547.0493 286.2473)" class="st2 st10">C</text>
	</g>
	<g id="Ds">
		<text transform="matrix(1 0 0 1 81.0562 321.7111)" class="st2 st10">D</text>
		<text transform="matrix(1 0 0 1 547.0493 321.7111)" class="st2 st10">D</text>
	</g>
	<g id="Es">
		<text transform="matrix(1 0 0 1 82.3877 357.175)" class="st2 st10">E</text>
		<text transform="matrix(1 0 0 1 548.3809 357.175)" class="st2 st10">E</text>
	</g>
	<g id="Fs">
		<text transform="matrix(1 0 0 1 83.0479 392.6392)" class="st2 st10">F</text>
		<text transform="matrix(1 0 0 1 549.041 392.6392)" class="st2 st10">F</text>
	</g>
	<g id="Gs">
		<text transform="matrix(1 0 0 1 80.3838 428.1036)" class="st2 st10">G</text>
		<text transform="matrix(1 0 0 1 546.377 428.1036)" class="st2 st10">G</text>
	</g>
	<g id="Hs">
		<text transform="matrix(1 0 0 1 81.0562 463.5675)" class="st2 st10">H</text>
		<text transform="matrix(1 0 0 1 547.0493 463.5675)" class="st2 st10">H</text>
	</g>
	<g id="Js">
		<text transform="matrix(1 0 0 1 83.7198 499.0317)" class="st2 st10">J</text>
		<text transform="matrix(1 0 0 1 549.7129 499.0317)" class="st2 st10">J</text>
	</g>
	<g id="Ks">
		<text transform="matrix(1 0 0 1 81.7159 534.4957)" class="st2 st10">K</text>
		<text transform="matrix(1 0 0 1 547.709 534.4957)" class="st2 st10">K</text>
	</g>
	<g id="Ms">
		<text transform="matrix(1 0 0 1 78.7237 589.9714)" class="st2 st10">M</text>
		<text transform="matrix(1 0 0 1 545.7169 589.9714)" class="st2 st10">M</text>
	</g>
	<g id="Ns">
		<text transform="matrix(1 0 0 1 80.0562 625.03)" class="st2 st10">N</text>
		<text transform="matrix(1 0 0 1 547.0494 625.03)" class="st2 st10">N</text>
	</g>
	<g id="Os">
		<text transform="matrix(1 0 0 1 79.3838 660.0887)" class="st2 st10">O</text>
		<text transform="matrix(1 0 0 1 546.377 660.0887)" class="st2 st10">O</text>
	</g>
	<g id="Ps">
		<text transform="matrix(1 0 0 1 81.3877 695.1466)" class="st2 st10">P</text>
		<text transform="matrix(1 0 0 1 548.3809 695.1466)" class="st2 st10">P</text>
	</g>
	<g id="Qs">
		<text transform="matrix(1 0 0 1 79.3838 730.2057)" class="st2 st10">Q</text>
		<text transform="matrix(1 0 0 1 546.377 730.2057)" class="st2 st10">Q</text>
	</g>
	<g id="Rs">
		<text transform="matrix(1 0 0 1 80.7159 765.2644)" class="st2 st10">R</text>
		<text transform="matrix(1 0 0 1 547.709 765.2644)" class="st2 st10">R</text>
	</g>
	<g id="Ss">
		<text transform="matrix(1 0 0 1 81.3877 800.3232)" class="st2 st10">S</text>
		<text transform="matrix(1 0 0 1 548.3809 800.3232)" class="st2 st10">S</text>
	</g>
	<g id="Ts">
		<text transform="matrix(1 0 0 1 82.0479 835.3811)" class="st2 st10">T</text>
		<text transform="matrix(1 0 0 1 549.0411 835.3811)" class="st2 st10">T</text>
	</g>
	<g id="Us">
		<text transform="matrix(1 0 0 1 80.0562 870.4401)" class="st2 st10">U</text>
		<text transform="matrix(1 0 0 1 404.3015 870.4401)" class="st2 st10">U</text>
	</g>
	<g id="Vs">
		<text transform="matrix(1 0 0 1 81.3877 905.499)" class="st2 st10">V</text>
		<text transform="matrix(1 0 0 1 405.633 905.499)" class="st2 st10">V</text>
	</g>
	<g id="Ws">
		<text transform="matrix(1 0 0 1 78.0518 940.5568)" class="st2 st10">W</text>
		<text transform="matrix(1 0 0 1 402.2971 940.5568)" class="st2 st10">W</text>
	</g>
</g>
<g id="SeatNumbers">
	<g id="A_nums">
		<text transform="matrix(1 0 0 1 138.1149 243.9724)" class="st4 st11">11</text>
		<text transform="matrix(1 0 0 1 174.3626 243.9724)" class="st4 st11">10</text>
		<text transform="matrix(1 0 0 1 213.3908 243.9724)" class="st4 st11">9</text>
		<text transform="matrix(1 0 0 1 249.6383 243.9724)" class="st4 st11">8</text>
		<text transform="matrix(1 0 0 1 285.8863 243.9724)" class="st4 st11">7</text>
		<text transform="matrix(1 0 0 1 322.1333 243.9724)" class="st4 st11">6</text>
		<text transform="matrix(1 0 0 1 358.3816 243.9724)" class="st4 st11">5</text>
		<text transform="matrix(1 0 0 1 394.6286 243.9724)" class="st4 st11">4</text>
		<text transform="matrix(1 0 0 1 430.8764 243.9724)" class="st4 st11">3</text>
		<text transform="matrix(1 0 0 1 467.1241 243.9724)" class="st4 st11">2</text>
		<text transform="matrix(1 0 0 1 503.3715 243.9724)" class="st4 st11">1</text>
	</g>
	<g id="B_nums">
		<text transform="matrix(1 0 0 1 195.1203 208.773)" class="st4 st11">8</text>
		<text transform="matrix(1 0 0 1 231.3683 208.773)" class="st4 st11">7</text>
		<text transform="matrix(1 0 0 1 267.6153 208.773)" class="st4 st11">6</text>
		<text transform="matrix(1 0 0 1 303.8636 208.773)" class="st4 st11">5</text>
		<text transform="matrix(1 0 0 1 340.1107 208.773)" class="st4 st11">4</text>
		<text transform="matrix(1 0 0 1 376.3585 208.773)" class="st4 st11">3</text>
		<text transform="matrix(1 0 0 1 412.6062 208.773)" class="st4 st11">2</text>
		<text transform="matrix(1 0 0 1 448.8535 208.773)" class="st4 st11">1</text>
	</g>
	<g id="C_nums">
		<text transform="matrix(1 0 0 1 120.0398 279.1718)" class="st4 st11">12</text>
		<text transform="matrix(1 0 0 1 156.2876 279.1718)" class="st4 st11">11</text>
		<text transform="matrix(1 0 0 1 192.5353 279.1718)" class="st4 st11">10</text>
		<text transform="matrix(1 0 0 1 231.5634 279.1718)" class="st4 st11">9</text>
		<text transform="matrix(1 0 0 1 267.8109 279.1718)" class="st4 st11">8</text>
		<text transform="matrix(1 0 0 1 304.059 279.1718)" class="st4 st11">7</text>
		<text transform="matrix(1 0 0 1 340.3059 279.1718)" class="st4 st11">6</text>
		<text transform="matrix(1 0 0 1 376.5543 279.1718)" class="st4 st11">5</text>
		<text transform="matrix(1 0 0 1 412.8013 279.1718)" class="st4 st11">4</text>
		<text transform="matrix(1 0 0 1 449.0491 279.1718)" class="st4 st11">3</text>
		<text transform="matrix(1 0 0 1 485.2968 279.1718)" class="st4 st11">2</text>
		<text transform="matrix(1 0 0 1 521.5442 279.1718)" class="st4 st11">1</text>
	</g>
	<g id="D_nums">
		<text transform="matrix(1 0 0 1 120.0398 314.3712)" class="st4 st11">12</text>
		<text transform="matrix(1 0 0 1 156.2876 314.3712)" class="st4 st11">11</text>
		<text transform="matrix(1 0 0 1 192.5353 314.3712)" class="st4 st11">10</text>
		<text transform="matrix(1 0 0 1 231.5634 314.3712)" class="st4 st11">9</text>
		<text transform="matrix(1 0 0 1 267.8109 314.3712)" class="st4 st11">8</text>
		<text transform="matrix(1 0 0 1 304.059 314.3712)" class="st4 st11">7</text>
		<text transform="matrix(1 0 0 1 340.3059 314.3712)" class="st4 st11">6</text>
		<text transform="matrix(1 0 0 1 376.5543 314.3712)" class="st4 st11">5</text>
		<text transform="matrix(1 0 0 1 412.8013 314.3712)" class="st4 st11">4</text>
		<text transform="matrix(1 0 0 1 449.0491 314.3712)" class="st4 st11">3</text>
		<text transform="matrix(1 0 0 1 485.2968 314.3712)" class="st4 st11">2</text>
		<text transform="matrix(1 0 0 1 521.5442 314.3712)" class="st4 st11">1</text>
	</g>
	<g id="E_nums">
		<text transform="matrix(1 0 0 1 120.0398 349.5706)" class="st4 st11">12</text>
		<text transform="matrix(1 0 0 1 156.2876 349.5706)" class="st4 st11">11</text>
		<text transform="matrix(1 0 0 1 192.5353 349.5706)" class="st4 st11">10</text>
		<text transform="matrix(1 0 0 1 231.5634 349.5706)" class="st4 st11">9</text>
		<text transform="matrix(1 0 0 1 267.8109 349.5706)" class="st4 st11">8</text>
		<text transform="matrix(1 0 0 1 304.059 349.5706)" class="st4 st11">7</text>
		<text transform="matrix(1 0 0 1 340.3059 349.5706)" class="st4 st11">6</text>
		<text transform="matrix(1 0 0 1 376.5543 349.5706)" class="st4 st11">5</text>
		<text transform="matrix(1 0 0 1 412.8013 349.5706)" class="st4 st11">4</text>
		<text transform="matrix(1 0 0 1 449.0491 349.5706)" class="st4 st11">3</text>
		<text transform="matrix(1 0 0 1 485.2968 349.5706)" class="st4 st11">2</text>
		<text transform="matrix(1 0 0 1 521.5442 349.5706)" class="st4 st11">1</text>
	</g>
	<g id="F_nums">
		<text transform="matrix(1 0 0 1 120.0398 384.77)" class="st4 st11">12</text>
		<text transform="matrix(1 0 0 1 156.2876 384.77)" class="st4 st11">11</text>
		<text transform="matrix(1 0 0 1 192.5353 384.77)" class="st4 st11">10</text>
		<text transform="matrix(1 0 0 1 231.5634 384.77)" class="st4 st11">9</text>
		<text transform="matrix(1 0 0 1 267.8109 384.77)" class="st4 st11">8</text>
		<text transform="matrix(1 0 0 1 304.059 384.77)" class="st4 st11">7</text>
		<text transform="matrix(1 0 0 1 340.3059 384.77)" class="st4 st11">6</text>
		<text transform="matrix(1 0 0 1 376.5543 384.77)" class="st4 st11">5</text>
		<text transform="matrix(1 0 0 1 412.8013 384.77)" class="st4 st11">4</text>
		<text transform="matrix(1 0 0 1 449.0491 384.77)" class="st4 st11">3</text>
		<text transform="matrix(1 0 0 1 485.2968 384.77)" class="st4 st11">2</text>
		<text transform="matrix(1 0 0 1 521.5442 384.77)" class="st4 st11">1</text>
	</g>
	<g id="G_nums">
		<text transform="matrix(1 0 0 1 120.0398 419.9694)" class="st4 st11">12</text>
		<text transform="matrix(1 0 0 1 156.2876 419.9694)" class="st4 st11">11</text>
		<text transform="matrix(1 0 0 1 192.5353 419.9694)" class="st4 st11">10</text>
		<text transform="matrix(1 0 0 1 231.5634 419.9694)" class="st4 st11">9</text>
		<text transform="matrix(1 0 0 1 267.8109 419.9694)" class="st4 st11">8</text>
		<text transform="matrix(1 0 0 1 304.059 419.9694)" class="st4 st11">7</text>
		<text transform="matrix(1 0 0 1 340.3059 419.9694)" class="st4 st11">6</text>
		<text transform="matrix(1 0 0 1 376.5543 419.9694)" class="st4 st11">5</text>
		<text transform="matrix(1 0 0 1 412.8013 419.9694)" class="st4 st11">4</text>
		<text transform="matrix(1 0 0 1 449.0491 419.9694)" class="st4 st11">3</text>
		<text transform="matrix(1 0 0 1 485.2968 419.9694)" class="st4 st11">2</text>
		<text transform="matrix(1 0 0 1 521.5442 419.9694)" class="st4 st11">1</text>
	</g>
	<g id="H_nums">
		<text transform="matrix(1 0 0 1 120.0398 455.1687)" class="st4 st11">12</text>
		<text transform="matrix(1 0 0 1 156.2876 455.1687)" class="st4 st11">11</text>
		<text transform="matrix(1 0 0 1 192.5353 455.1687)" class="st4 st11">10</text>
		<text transform="matrix(1 0 0 1 231.5634 455.1687)" class="st4 st11">9</text>
		<text transform="matrix(1 0 0 1 267.8109 455.1687)" class="st4 st11">8</text>
		<text transform="matrix(1 0 0 1 304.059 455.1687)" class="st4 st11">7</text>
		<text transform="matrix(1 0 0 1 340.3059 455.1687)" class="st4 st11">6</text>
		<text transform="matrix(1 0 0 1 376.5543 455.1687)" class="st4 st11">5</text>
		<text transform="matrix(1 0 0 1 412.8013 455.1687)" class="st4 st11">4</text>
		<text transform="matrix(1 0 0 1 449.0491 455.1687)" class="st4 st11">3</text>
		<text transform="matrix(1 0 0 1 485.2968 455.1687)" class="st4 st11">2</text>
		<text transform="matrix(1 0 0 1 521.5442 455.1687)" class="st4 st11">1</text>
	</g>
	<g id="J_nums">
		<text transform="matrix(1 0 0 1 120.0398 490.3681)" class="st4 st11">12</text>
		<text transform="matrix(1 0 0 1 156.2876 490.3681)" class="st4 st11">11</text>
		<text transform="matrix(1 0 0 1 192.5353 490.3681)" class="st4 st11">10</text>
		<text transform="matrix(1 0 0 1 231.5634 490.3681)" class="st4 st11">9</text>
		<text transform="matrix(1 0 0 1 267.8109 490.3681)" class="st4 st11">8</text>
		<text transform="matrix(1 0 0 1 304.059 490.3681)" class="st4 st11">7</text>
		<text transform="matrix(1 0 0 1 340.3059 490.3681)" class="st4 st11">6</text>
		<text transform="matrix(1 0 0 1 376.5543 490.3681)" class="st4 st11">5</text>
		<text transform="matrix(1 0 0 1 412.8013 490.3681)" class="st4 st11">4</text>
		<text transform="matrix(1 0 0 1 449.0491 490.3681)" class="st4 st11">3</text>
		<text transform="matrix(1 0 0 1 485.2968 490.3681)" class="st4 st11">2</text>
		<text transform="matrix(1 0 0 1 521.5442 490.3681)" class="st4 st11">1</text>
	</g>
	<g id="K_nums">
		<text transform="matrix(1 0 0 1 120.0398 525.5675)" class="st4 st11">12</text>
		<text transform="matrix(1 0 0 1 156.2876 525.5675)" class="st4 st11">11</text>
		<text transform="matrix(1 0 0 1 192.5353 525.5675)" class="st4 st11">10</text>
		<text transform="matrix(1 0 0 1 231.5634 525.5675)" class="st4 st11">9</text>
		<text transform="matrix(1 0 0 1 267.8109 525.5675)" class="st4 st11">8</text>
		<text transform="matrix(1 0 0 1 304.059 525.5675)" class="st4 st11">7</text>
		<text transform="matrix(1 0 0 1 340.3059 525.5675)" class="st4 st11">6</text>
		<text transform="matrix(1 0 0 1 376.5543 525.5675)" class="st4 st11">5</text>
		<text transform="matrix(1 0 0 1 412.8013 525.5675)" class="st4 st11">4</text>
		<text transform="matrix(1 0 0 1 459.0491 525.5675)" class="st4 st11">3</text>
		<text transform="matrix(1 0 0 1 495.2968 525.5675)" class="st4 st11">2</text>
		<text transform="matrix(1 0 0 1 531.5442 525.5675)" class="st4 st11">1</text>
	</g>
	<g id="M_nums">
		<text transform="matrix(1 0 0 1 119.9535 583.308)" class="st4 st11">12</text>
		<text transform="matrix(1 0 0 1 156.2012 583.308)" class="st4 st11">11</text>
		<text transform="matrix(1 0 0 1 192.449 583.308)" class="st4 st11">10</text>
		<text transform="matrix(1 0 0 1 231.4771 583.308)" class="st4 st11">9</text>
		<text transform="matrix(1 0 0 1 267.7246 583.308)" class="st4 st11">8</text>
		<text transform="matrix(1 0 0 1 303.9727 583.308)" class="st4 st11">7</text>
		<text transform="matrix(1 0 0 1 340.2196 583.308)" class="st4 st11">6</text>
		<text transform="matrix(1 0 0 1 376.468 583.308)" class="st4 st11">5</text>
		<text transform="matrix(1 0 0 1 412.715 583.308)" class="st4 st11">4</text>
		<text transform="matrix(1 0 0 1 448.9628 583.308)" class="st4 st11">3</text>
		<text transform="matrix(1 0 0 1 485.2104 583.308)" class="st4 st11">2</text>
		<text transform="matrix(1 0 0 1 521.4578 583.308)" class="st4 st11">1</text>
	</g>
	<g id="N_nums">
		<text transform="matrix(1 0 0 1 119.9535 618.5074)" class="st4 st11">12</text>
		<text transform="matrix(1 0 0 1 156.2012 618.5074)" class="st4 st11">11</text>
		<text transform="matrix(1 0 0 1 192.449 618.5074)" class="st4 st11">10</text>
		<text transform="matrix(1 0 0 1 231.4771 618.5074)" class="st4 st11">9</text>
		<text transform="matrix(1 0 0 1 267.7246 618.5074)" class="st4 st11">8</text>
		<text transform="matrix(1 0 0 1 303.9727 618.5074)" class="st4 st11">7</text>
		<text transform="matrix(1 0 0 1 340.2196 618.5074)" class="st4 st11">6</text>
		<text transform="matrix(1 0 0 1 376.468 618.5074)" class="st4 st11">5</text>
		<text transform="matrix(1 0 0 1 412.715 618.5074)" class="st4 st11">4</text>
		<text transform="matrix(1 0 0 1 448.9628 618.5074)" class="st4 st11">3</text>
		<text transform="matrix(1 0 0 1 485.2104 618.5074)" class="st4 st11">2</text>
		<text transform="matrix(1 0 0 1 521.4578 618.5074)" class="st4 st11">1</text>
	</g>
	<g id="O_nums">
		<text transform="matrix(1 0 0 1 119.9535 653.7068)" class="st4 st11">12</text>
		<text transform="matrix(1 0 0 1 156.2012 653.7068)" class="st4 st11">11</text>
		<text transform="matrix(1 0 0 1 192.449 653.7068)" class="st4 st11">10</text>
		<text transform="matrix(1 0 0 1 231.4771 653.7068)" class="st4 st11">9</text>
		<text transform="matrix(1 0 0 1 267.7246 653.7068)" class="st4 st11">8</text>
		<text transform="matrix(1 0 0 1 303.9727 653.7068)" class="st4 st11">7</text>
		<text transform="matrix(1 0 0 1 340.2196 653.7068)" class="st4 st11">6</text>
		<text transform="matrix(1 0 0 1 376.468 653.7068)" class="st4 st11">5</text>
		<text transform="matrix(1 0 0 1 412.715 653.7068)" class="st4 st11">4</text>
		<text transform="matrix(1 0 0 1 448.9628 653.7068)" class="st4 st11">3</text>
		<text transform="matrix(1 0 0 1 485.2104 653.7068)" class="st4 st11">2</text>
		<text transform="matrix(1 0 0 1 521.4578 653.7068)" class="st4 st11">1</text>
	</g>
	<g id="P_nums">
		<text transform="matrix(1 0 0 1 119.9535 688.9062)" class="st4 st11">12</text>
		<text transform="matrix(1 0 0 1 156.2012 688.9062)" class="st4 st11">11</text>
		<text transform="matrix(1 0 0 1 192.449 688.9062)" class="st4 st11">10</text>
		<text transform="matrix(1 0 0 1 231.4771 688.9062)" class="st4 st11">9</text>
		<text transform="matrix(1 0 0 1 267.7246 688.9062)" class="st4 st11">8</text>
		<text transform="matrix(1 0 0 1 303.9727 688.9062)" class="st4 st11">7</text>
		<text transform="matrix(1 0 0 1 340.2196 688.9062)" class="st4 st11">6</text>
		<text transform="matrix(1 0 0 1 376.468 688.9062)" class="st4 st11">5</text>
		<text transform="matrix(1 0 0 1 412.715 688.9062)" class="st4 st11">4</text>
		<text transform="matrix(1 0 0 1 448.9628 688.9062)" class="st4 st11">3</text>
		<text transform="matrix(1 0 0 1 485.2104 688.9062)" class="st4 st11">2</text>
		<text transform="matrix(1 0 0 1 521.4578 688.9062)" class="st4 st11">1</text>
	</g>
	<g id="Q_nums">
		<text transform="matrix(1 0 0 1 119.9535 724.1056)" class="st4 st11">12</text>
		<text transform="matrix(1 0 0 1 156.2012 724.1056)" class="st4 st11">11</text>
		<text transform="matrix(1 0 0 1 192.449 724.1056)" class="st4 st11">10</text>
		<text transform="matrix(1 0 0 1 231.4771 724.1056)" class="st4 st11">9</text>
		<text transform="matrix(1 0 0 1 267.7246 724.1056)" class="st4 st11">8</text>
		<text transform="matrix(1 0 0 1 303.9727 724.1056)" class="st4 st11">7</text>
		<text transform="matrix(1 0 0 1 340.2196 724.1056)" class="st4 st11">6</text>
		<text transform="matrix(1 0 0 1 376.468 724.1056)" class="st4 st11">5</text>
		<text transform="matrix(1 0 0 1 412.715 724.1056)" class="st4 st11">4</text>
		<text transform="matrix(1 0 0 1 448.9628 724.1056)" class="st4 st11">3</text>
		<text transform="matrix(1 0 0 1 485.2104 724.1056)" class="st4 st11">2</text>
		<text transform="matrix(1 0 0 1 521.4578 724.1056)" class="st4 st11">1</text>
	</g>
	<g id="R_nums">
		<text transform="matrix(1 0 0 1 119.9535 759.3049)" class="st4 st11">12</text>
		<text transform="matrix(1 0 0 1 156.2012 759.3049)" class="st4 st11">11</text>
		<text transform="matrix(1 0 0 1 192.449 759.3049)" class="st4 st11">10</text>
		<text transform="matrix(1 0 0 1 231.4771 759.3049)" class="st4 st11">9</text>
		<text transform="matrix(1 0 0 1 267.7246 759.3049)" class="st4 st11">8</text>
		<text transform="matrix(1 0 0 1 303.9727 759.3049)" class="st4 st11">7</text>
		<text transform="matrix(1 0 0 1 340.2196 759.3049)" class="st4 st11">6</text>
		<text transform="matrix(1 0 0 1 376.468 759.3049)" class="st4 st11">5</text>
		<text transform="matrix(1 0 0 1 412.715 759.3049)" class="st4 st11">4</text>
		<text transform="matrix(1 0 0 1 448.9628 759.3049)" class="st4 st11">3</text>
		<text transform="matrix(1 0 0 1 485.2104 759.3049)" class="st4 st11">2</text>
		<text transform="matrix(1 0 0 1 521.4578 759.3049)" class="st4 st11">1</text>
	</g>
	<g id="S_nums">
		<text transform="matrix(1 0 0 1 122.5275 794.5043)" class="st4 st11">9</text>
		<text transform="matrix(1 0 0 1 158.775 794.5043)" class="st4 st11">8</text>
		<text transform="matrix(1 0 0 1 195.023 794.5043)" class="st4 st11">7</text>
		<text transform="matrix(1 0 0 1 231.27 794.5043)" class="st4 st11">6</text>
		<text transform="matrix(1 0 0 1 267.5184 794.5043)" class="st4 st11">5</text>
		<text transform="matrix(1 0 0 1 303.7654 794.5043)" class="st4 st11">4</text>
		<text transform="matrix(1 0 0 1 340.0132 794.5043)" class="st4 st11">3</text>
		<text transform="matrix(1 0 0 1 485.2104 794.5043)" class="st4 st11">2</text>
		<text transform="matrix(1 0 0 1 521.4578 794.5043)" class="st4 st11">1</text>
	</g>
	<g id="T_nums">
		<text transform="matrix(1 0 0 1 119.8559 829.7037)" class="st4 st11">11</text>
		<text transform="matrix(1 0 0 1 156.1037 829.7037)" class="st4 st11">10</text>
		<text transform="matrix(1 0 0 1 195.1318 829.7037)" class="st4 st11">9</text>
		<text transform="matrix(1 0 0 1 231.3793 829.7037)" class="st4 st11">8</text>
		<text transform="matrix(1 0 0 1 267.6273 829.7037)" class="st4 st11">7</text>
		<text transform="matrix(1 0 0 1 303.8743 829.7037)" class="st4 st11">6</text>
		<text transform="matrix(1 0 0 1 340.1226 829.7037)" class="st4 st11">5</text>
		<text transform="matrix(1 0 0 1 376.3697 829.7037)" class="st4 st11">4</text>
		<text transform="matrix(1 0 0 1 448.9628 829.7037)" class="st4 st11">3</text>
		<text transform="matrix(1 0 0 1 485.2104 829.7037)" class="st4 st11">2</text>
		<text transform="matrix(1 0 0 1 521.4578 829.7037)" class="st4 st11">1</text>
	</g>
	<g id="U_nums">
		<text transform="matrix(1 0 0 1 122.3434 864.9031)" class="st4 st11">8</text>
		<text transform="matrix(1 0 0 1 158.5914 864.9031)" class="st4 st11">7</text>
		<text transform="matrix(1 0 0 1 194.8384 864.9031)" class="st4 st11">6</text>
		<text transform="matrix(1 0 0 1 231.0867 864.9031)" class="st4 st11">5</text>
		<text transform="matrix(1 0 0 1 267.3337 864.9031)" class="st4 st11">4</text>
		<text transform="matrix(1 0 0 1 303.5815 864.9031)" class="st4 st11">3</text>
		<text transform="matrix(1 0 0 1 339.8292 864.9031)" class="st4 st11">2</text>
		<text transform="matrix(1 0 0 1 376.0766 864.9031)" class="st4 st11">1</text>
	</g>
	<g id="V_nums">
		<text transform="matrix(1 0 0 1 122.3434 900.1025)" class="st4 st11">8</text>
		<text transform="matrix(1 0 0 1 158.5914 900.1025)" class="st4 st11">7</text>
		<text transform="matrix(1 0 0 1 194.8384 900.1025)" class="st4 st11">6</text>
		<text transform="matrix(1 0 0 1 231.0867 900.1025)" class="st4 st11">5</text>
		<text transform="matrix(1 0 0 1 267.3337 900.1025)" class="st4 st11">4</text>
		<text transform="matrix(1 0 0 1 303.5815 900.1025)" class="st4 st11">3</text>
		<text transform="matrix(1 0 0 1 339.8292 900.1025)" class="st4 st11">2</text>
		<text transform="matrix(1 0 0 1 376.0766 900.1025)" class="st4 st11">1</text>
	</g>
	<g id="W_nums">
		<text transform="matrix(1 0 0 1 122.3434 935.3019)" class="st4 st11">8</text>
		<text transform="matrix(1 0 0 1 158.5914 935.3019)" class="st4 st11">7</text>
		<text transform="matrix(1 0 0 1 194.8384 935.3019)" class="st4 st11">6</text>
		<text transform="matrix(1 0 0 1 231.0867 935.3019)" class="st4 st11">5</text>
		<text transform="matrix(1 0 0 1 267.3337 935.3019)" class="st4 st11">4</text>
		<text transform="matrix(1 0 0 1 303.5815 935.3019)" class="st4 st11">3</text>
		<text transform="matrix(1 0 0 1 339.8292 935.3019)" class="st4 st11">2</text>
		<text transform="matrix(1 0 0 1 376.0766 935.3019)" class="st4 st11">1</text>
	</g>
	<g>
		<g>
			<g>
				<circle class="st12" cx="445.2" cy="522.6" r="6.7" />
				<polygon class="st13" points="448.9,525.1 448.4,525.6 447,523.6 445.4,523.6 445.4,522.7 447.2,522.7 447.2,521.7 445.4,521.7       445.4,519.9 444.5,519.9 444.5,524.5 446.6,524.5 448.2,527.1 449.4,525.8     " />
				<path class="st13" d="M445,517.4c0.5,0,0.9,0.4,0.9,0.9s-0.4,0.9-0.9,0.9s-0.9-0.4-0.9-0.9C444.1,517.8,444.5,517.4,445,517.4z" />
				<path class="st13" d="M444.6,526.4c-1,0-1.8-0.8-1.8-1.8c0-0.7,0.4-1.3,0.9-1.6v-1c-1.1,0.4-1.8,1.4-1.8,2.6      c0,1.5,1.2,2.8,2.8,2.8c0.9,0,1.6-0.4,2.2-1l-0.6-0.8C445.9,526,445.3,526.4,444.6,526.4z" />
			</g>
		</g>
	</g>
	<g>
		<g>
			<g>
				<circle class="st12" cx="482.4" cy="522.6" r="6.7" />
				<polygon class="st13" points="486.2,525.1 485.6,525.6 484.3,523.6 482.7,523.6 482.7,522.7 484.4,522.7 484.4,521.7       482.7,521.7 482.7,519.9 481.8,519.9 481.8,524.5 483.8,524.5 485.5,527.1 486.7,525.8     " />
				<path class="st13" d="M482.2,517.4c0.5,0,0.9,0.4,0.9,0.9s-0.4,0.9-0.9,0.9s-0.9-0.4-0.9-0.9      C481.3,517.8,481.7,517.4,482.2,517.4z" />
				<path class="st13" d="M481.9,526.4c-1,0-1.8-0.8-1.8-1.8c0-0.7,0.4-1.3,0.9-1.6v-1c-1.1,0.4-1.8,1.4-1.8,2.6      c0,1.5,1.2,2.8,2.8,2.8c0.9,0,1.6-0.4,2.2-1l-0.6-0.8C483.1,526,482.5,526.4,481.9,526.4z" />
			</g>
		</g>
	</g>
	<g>
		<g>
			<g>
				<circle class="st12" cx="517.5" cy="522.6" r="6.7" />
				<polygon class="st13" points="521.2,525.1 520.6,525.6 519.3,523.6 517.7,523.6 517.7,522.7 519.5,522.7 519.5,521.7       517.7,521.7 517.7,519.9 516.8,519.9 516.8,524.5 518.8,524.5 520.5,527.1 521.7,525.8     " />
				<path class="st13" d="M517.2,517.4c0.5,0,0.9,0.4,0.9,0.9s-0.4,0.9-0.9,0.9s-0.9-0.4-0.9-0.9      C516.3,517.8,516.7,517.4,517.2,517.4z" />
				<path class="st13" d="M516.9,526.4c-1,0-1.8-0.8-1.8-1.8c0-0.7,0.4-1.3,0.9-1.6v-1c-1.1,0.4-1.8,1.4-1.8,2.6      c0,1.5,1.2,2.8,2.8,2.8c0.9,0,1.6-0.4,2.2-1l-0.6-0.8C518.2,526,517.6,526.4,516.9,526.4z" />
			</g>
		</g>
	</g>
</g>
</svg>